<svg id="Layer_1" data-name="Layer 1" xmlns="http://www.w3.org/2000/svg" viewBox="0 0 1132.35 441.36"><path d="M0,155.53V258.6a28.5,28.5,0,0,0,28.46,28.56h124L3.17,154.12A1.9,1.9,0,0,0,0,155.53Z"/><path d="M152.41,139.07V24.22A24.22,24.22,0,0,1,176.64,0L302.77,0a1.94,1.94,0,0,1,1.29,3.38Z"/><path d="M152.41,213,7.76,83.6A23.18,23.18,0,0,1,0,66.29V7A1.9,1.9,0,0,1,3.17,5.58L152.41,139.07Z"/><path d="M152.41,287.17,297.07,157.56a23.17,23.17,0,0,0,7.75-17.31V81a1.89,1.89,0,0,0-3.16-1.41L152.41,213Z"/><path d="M304.83,212v56.18a19,19,0,0,1-19,19H216l85.65-76.62A1.89,1.89,0,0,1,304.83,212Z"/><path d="M509.09,287.38H489.86V215l-29.25,72.39H446.06L416.81,215v72.39H397.58v-117H416l37.45,87.1,37.28-87.1h18.39Z"/><path d="M523.86,181.05a13.08,13.08,0,0,1,3.93-9.61,12.88,12.88,0,0,1,9.45-3.93,13.42,13.42,0,0,1,13.54,13.54,12.88,12.88,0,0,1-3.93,9.45,13.07,13.07,0,0,1-9.61,3.93,13.42,13.42,0,0,1-13.38-13.38Zm4.35,28.42h18.22v77.91H528.21Z"/><path d="M627.21,276.07a25.11,25.11,0,0,1-10.45,9.19,30.51,30.51,0,0,1-13.62,3.35,39.63,39.63,0,0,1-16.22-3.26,38,38,0,0,1-12.62-9,41.93,41.93,0,0,1-11.12-28.75A42.14,42.14,0,0,1,566.11,232a41.45,41.45,0,0,1,8.19-13.13A38,38,0,0,1,586.92,210a39.63,39.63,0,0,1,16.22-3.26A30.49,30.49,0,0,1,616.76,210a25.13,25.13,0,0,1,10.45,9.2V169.58h18.22v117H627.21Zm-23.07-3.68a21.86,21.86,0,0,0,9.44-2,22.48,22.48,0,0,0,7.28-5.35,24.2,24.2,0,0,0,4.68-7.85,28,28,0,0,0,0-19.06,24.36,24.36,0,0,0-4.68-7.86,22.62,22.62,0,0,0-7.28-5.35,21.85,21.85,0,0,0-9.44-2,21.28,21.28,0,0,0-9.36,2A22.65,22.65,0,0,0,583,238.12a29.36,29.36,0,0,0,0,19.06,22.67,22.67,0,0,0,11.79,13.2A21.28,21.28,0,0,0,604.14,272.39Z"/><path d="M712.57,287.38q-2.18.33-5.86.67t-7.69.33a60.13,60.13,0,0,1-7.69-.58,19.25,19.25,0,0,1-8.27-3.26,20.34,20.34,0,0,1-6.6-8.2q-2.69-5.5-2.68-15.38V224.69H660.57V209.47h13.21V185.9H692v23.57h17.89v15.22H692v32a33.62,33.62,0,0,0,.76,8,10.13,10.13,0,0,0,2.25,4.58,7.19,7.19,0,0,0,3.6,2.08,20.16,20.16,0,0,0,4.76.5h5a13,13,0,0,0,4.18-.5Z"/><path d="M730.58,209.47h18.23v10.87a23.89,23.89,0,0,1,10.2-9.61,33.48,33.48,0,0,1,15.21-3.26q8.52,0,14.29,2.84a23.27,23.27,0,0,1,9.11,7.69,27.42,27.42,0,0,1,3.93,9.69,68.41,68.41,0,0,1,1.09,13.38v46.31H784.42V247.09a49.29,49.29,0,0,0-.84-9.36,21.83,21.83,0,0,0-2.76-7.44,14.28,14.28,0,0,0-5.18-4.94,16.38,16.38,0,0,0-8.11-1.83q-9.53,0-14.13,6.77t-4.59,16.8v40.29H730.58Z"/><path d="M855.86,289.38A41.9,41.9,0,0,1,839,286.12a38.37,38.37,0,0,1-12.88-8.94,40.93,40.93,0,0,1-8.27-13,43.39,43.39,0,0,1,0-31.35,40.85,40.85,0,0,1,8.27-13.12A38.37,38.37,0,0,1,839,210.73a41.9,41.9,0,0,1,16.88-3.26,42.55,42.55,0,0,1,17,3.26,39,39,0,0,1,13,8.94,40.09,40.09,0,0,1,8.36,13.12,43.53,43.53,0,0,1,0,31.35,40.16,40.16,0,0,1-8.36,13,39,39,0,0,1-13,8.94A42.55,42.55,0,0,1,855.86,289.38Zm0-16.21a21.93,21.93,0,0,0,9.45-2,22.69,22.69,0,0,0,7.27-5.35,24.18,24.18,0,0,0,4.68-7.86,28,28,0,0,0,0-19,24.18,24.18,0,0,0-4.68-7.86,22.69,22.69,0,0,0-7.27-5.35,21.93,21.93,0,0,0-9.45-2,21.31,21.31,0,0,0-9.36,2,22.65,22.65,0,0,0-11.79,13.21,29.5,29.5,0,0,0,0,19,22.65,22.65,0,0,0,11.79,13.21A21.31,21.31,0,0,0,855.86,273.17Z"/><path d="M961.8,226.36a32.71,32.71,0,0,0-3.59-.67,32.06,32.06,0,0,0-3.59-.17q-11.72,0-17.89,6.77t-6.19,21.48v33.61H912.32V209.47h18.22V222a19.94,19.94,0,0,1,3.76-5.1,28.45,28.45,0,0,1,5.69-4.34,30.1,30.1,0,0,1,7-3,27.08,27.08,0,0,1,7.61-1.09,19,19,0,0,1,7.18,1.17Z"/><path d="M1011.54,243.41q4,1.5,7.86,3.18a27.9,27.9,0,0,1,6.85,4.18,18.47,18.47,0,0,1,4.77,6,19.78,19.78,0,0,1,1.75,8.86,22,22,0,0,1-2.42,10.54,21,21,0,0,1-6.69,7.44,30.3,30.3,0,0,1-9.95,4.34,49.32,49.32,0,0,1-12,1.42,38.75,38.75,0,0,1-12-1.84,31,31,0,0,1-10.12-5.43,26.09,26.09,0,0,1-7-8.86,27.08,27.08,0,0,1-2.59-12.12h17.72q0,7.69,4.27,10.78a17.82,17.82,0,0,0,10.78,3.1,18.66,18.66,0,0,0,9-2q3.67-2,3.67-7a6.29,6.29,0,0,0-1.5-4.35,14.28,14.28,0,0,0-4.51-3.09,70.46,70.46,0,0,0-7.53-2.93q-4.51-1.5-10.7-3.84a71.37,71.37,0,0,1-7.44-3.26,25.74,25.74,0,0,1-5.93-4.1,15.33,15.33,0,0,1-3.85-5.85,24,24,0,0,1-1.33-8.52,19.53,19.53,0,0,1,2.34-9.7,22.08,22.08,0,0,1,6.35-7.11,28.15,28.15,0,0,1,9.28-4.34,43,43,0,0,1,11.28-1.42,33.42,33.42,0,0,1,11.62,2,30.09,30.09,0,0,1,9.45,5.52,26.1,26.1,0,0,1,6.35,8.36,23.89,23.89,0,0,1,2.34,10.53h-17.72a12.67,12.67,0,0,0-2.93-8.78q-2.93-3.25-9.61-3.26A14,14,0,0,0,993.4,224a7.15,7.15,0,0,0-3.26,6.35,6.12,6.12,0,0,0,1.34,4.1,11.63,11.63,0,0,0,4,2.84c1.78.83,4,1.73,6.69,2.67S1008,242.07,1011.54,243.41Z"/><path d="M1085.46,248.43l32.44,38.95h-22.74l-28.59-34.27v34.27h-18.22v-117h18.22v73.56l28.59-34.44h22.74Z"/><path d="M1132.35,377.86c-1.45-.33-2.65-.55-3.59-.67a32.45,32.45,0,0,0-3.6-.16q-11.7,0-17.89,6.77t-6.18,21.48v33.6h-18.22V361h18.22v12.54a19.38,19.38,0,0,1,3.76-5.1,28,28,0,0,1,5.68-4.35,30.91,30.91,0,0,1,7-3,27.5,27.5,0,0,1,7.61-1.09,19.24,19.24,0,0,1,7.19,1.17Z"/><path d="M452.08,338.24c-1.23-.33-2.51-.61-3.84-.83a24.74,24.74,0,0,0-4.18-.34c-1.45,0-2.9.06-4.35.17a8.07,8.07,0,0,0-3.93,1.34,8.58,8.58,0,0,0-2.92,3.67,16.9,16.9,0,0,0-1.17,7V361h20.39v15.21H431.69v62.69H413.46V376.19H397.58V361h15.88v-9.7q0-11.19,3.1-17.3a22.76,22.76,0,0,1,7.52-9,21.29,21.29,0,0,1,9.28-3.51,70.31,70.31,0,0,1,8.19-.59,30.37,30.37,0,0,1,6.27.59,15.58,15.58,0,0,1,4.26,1.42Z"/><path d="M467.89,332.72a12.57,12.57,0,0,1,3.67-9.11,12.18,12.18,0,0,1,9-3.76,12.84,12.84,0,0,1,12.87,12.87,12.12,12.12,0,0,1-3.76,9,12.54,12.54,0,0,1-9.11,3.68,12.55,12.55,0,0,1-12.7-12.71Z"/><rect x="471.56" y="360.98" width="18.22" height="77.9"/><path d="M509.43,321.86h18.22v117H509.43Z"/><path d="M644.1,438.88V395.25q0-9.36-3.43-14.8T629.55,375a17.15,17.15,0,0,0-6.43,1.17,12.69,12.69,0,0,0-5.19,4,20.77,20.77,0,0,0-3.51,7.44,45.41,45.41,0,0,0-1.25,11.62v39.62H595v-43.8q0-9.36-3.26-14.71t-11-5.35a17.82,17.82,0,0,0-6.52,1.17,12.53,12.53,0,0,0-5.27,4,21.68,21.68,0,0,0-3.59,7.44A42.1,42.1,0,0,0,564,399.26v39.62H545.8V361H564v10.86a22.18,22.18,0,0,1,8.28-9.11A24,24,0,0,1,585.75,359q10.69,0,16.39,4a23.26,23.26,0,0,1,8.19,9.87,24.27,24.27,0,0,1,9.19-9.87,27,27,0,0,1,14.71-4q8.7,0,14.21,2.76a22.86,22.86,0,0,1,8.61,7.1,25.17,25.17,0,0,1,4.18,9.78,55.4,55.4,0,0,1,1.09,10.95v49.32Z"/><path d="M718.15,394.91c2.68,1,5.29,2.07,7.86,3.18a28.33,28.33,0,0,1,6.85,4.18,18.5,18.5,0,0,1,4.77,6,19.75,19.75,0,0,1,1.75,8.86A22,22,0,0,1,737,427.68a21,21,0,0,1-6.69,7.44,30.56,30.56,0,0,1-9.94,4.35,49.9,49.9,0,0,1-12,1.42,39,39,0,0,1-12-1.84,31.19,31.19,0,0,1-10.11-5.43,26,26,0,0,1-7-8.86,27.11,27.11,0,0,1-2.59-12.12h17.72q0,7.68,4.26,10.78a17.91,17.91,0,0,0,10.78,3.09,18.6,18.6,0,0,0,9-2q3.67-2,3.68-7a6.2,6.2,0,0,0-1.51-4.34A14,14,0,0,0,716,410a71.23,71.23,0,0,0-7.52-2.92q-4.51-1.5-10.7-3.85a69.55,69.55,0,0,1-7.44-3.26,25.87,25.87,0,0,1-5.94-4.09,15.31,15.31,0,0,1-3.84-5.85,23.87,23.87,0,0,1-1.34-8.53,19.53,19.53,0,0,1,2.34-9.7,22.16,22.16,0,0,1,6.35-7.1,28.06,28.06,0,0,1,9.28-4.35A43.48,43.48,0,0,1,708.46,359a33.18,33.18,0,0,1,11.61,2,29.76,29.76,0,0,1,9.45,5.51,26.1,26.1,0,0,1,6.35,8.36,24,24,0,0,1,2.34,10.54H720.49q0-5.52-2.92-8.78T708,373.35a14,14,0,0,0-7.94,2.17,7.17,7.17,0,0,0-3.26,6.35,6.15,6.15,0,0,0,1.34,4.1,11.5,11.5,0,0,0,4,2.84c1.78.84,4,1.73,6.69,2.68S714.58,393.58,718.15,394.91Z"/><path d="M770,405.92a34.87,34.87,0,0,0,1.5,7.86,17.75,17.75,0,0,0,3.6,6.43,16.58,16.58,0,0,0,6.26,4.35,25,25,0,0,0,9.53,1.59q7.86,0,11.37-3a18.28,18.28,0,0,0,5.18-7.19h18.39a27.09,27.09,0,0,1-3.59,9.61,29.35,29.35,0,0,1-7.27,8.11,36.46,36.46,0,0,1-10.53,5.6,41.27,41.27,0,0,1-13.55,2.09,42.51,42.51,0,0,1-17.13-3.18,33.8,33.8,0,0,1-12.12-8.69,36.16,36.16,0,0,1-7.27-13,51.86,51.86,0,0,1-2.43-16.05,49.37,49.37,0,0,1,2.59-16.21,38.45,38.45,0,0,1,7.44-13,33.23,33.23,0,0,1,12-8.61,41.11,41.11,0,0,1,16.38-3.1,37.36,37.36,0,0,1,14.13,2.68A35.52,35.52,0,0,1,816,369.56a34.08,34.08,0,0,1,7.69,11.11,34.5,34.5,0,0,1,2.76,13.88c0,1.34,0,2.93-.08,4.77a49.51,49.51,0,0,1-.75,6.6Zm19.89-32.77A21.15,21.15,0,0,0,775.63,378q-5.68,4.85-5.68,14.38h38.78q0-9-5.26-14.13T789.84,373.15Z"/><path d="M843.66,361h18.22v10.86a23.89,23.89,0,0,1,10.2-9.61A33.67,33.67,0,0,1,887.29,359a32.27,32.27,0,0,1,14.3,2.84,23.43,23.43,0,0,1,9.11,7.69,27.76,27.76,0,0,1,3.93,9.7,69.18,69.18,0,0,1,1.08,13.37v46.31H897.49V398.59a49.37,49.37,0,0,0-.84-9.36,21.62,21.62,0,0,0-2.75-7.44,14.29,14.29,0,0,0-5.19-4.93,16.23,16.23,0,0,0-8.1-1.84q-9.54,0-14.13,6.77t-4.6,16.8v40.29H843.66Z"/><path d="M979.24,438.88c-1.45.22-3.4.45-5.85.67s-5,.34-7.69.34a58.53,58.53,0,0,1-7.69-.59,19.16,19.16,0,0,1-8.28-3.26,20.23,20.23,0,0,1-6.6-8.19q-2.67-5.52-2.68-15.38V376.19h-13.2V361h13.2V337.41h18.23V361h17.89v15.21H958.68v32a34.14,34.14,0,0,0,.75,8,10,10,0,0,0,2.26,4.58,7.18,7.18,0,0,0,3.59,2.09,20.76,20.76,0,0,0,4.77.49h5a12.66,12.66,0,0,0,4.18-.5Z"/><path d="M1010.16,405.45a34.89,34.89,0,0,0,1.51,7.85,17.54,17.54,0,0,0,3.59,6.44,16.7,16.7,0,0,0,6.27,4.35,25,25,0,0,0,9.53,1.59q7.86,0,11.37-3a18.45,18.45,0,0,0,5.18-7.19H1066a27.48,27.48,0,0,1-3.59,9.61,29.39,29.39,0,0,1-7.28,8.11,36.46,36.46,0,0,1-10.53,5.6,41.21,41.21,0,0,1-13.54,2.09,42.52,42.52,0,0,1-17.14-3.18A33.89,33.89,0,0,1,1001.8,429a36.55,36.55,0,0,1-7.27-13,52,52,0,0,1-2.42-16.05,49.47,49.47,0,0,1,2.59-16.22,38.31,38.31,0,0,1,7.44-13,33.43,33.43,0,0,1,12-8.61,41.19,41.19,0,0,1,16.39-3.09,37.31,37.31,0,0,1,14.12,2.68,35.57,35.57,0,0,1,11.54,7.44,34,34,0,0,1,10.45,25c0,1.34,0,2.92-.09,4.76a46.51,46.51,0,0,1-.75,6.61Zm19.9-32.77a21.12,21.12,0,0,0-14.21,4.85q-5.69,4.85-5.69,14.38H1049q0-9-5.27-14.13T1030.06,372.68Z"/></svg>