<?xml version="1.0" encoding="utf-8"?>
<svg version="1.1" id="Layer_1" x="0px" y="0px" viewBox="130.582 225.318 486.64 143.384" style="enable-background:new 0 0 841.9 595.3;" xmlns="http://www.w3.org/2000/svg">
  <style type="text/css">
	.st0{fill:#231F20;}
	.st1{fill:#FFFFFF;}
</style>
  <circle class="st0" cx="202.4" cy="296.9" r="70.9"/>
  <polygon class="st1" points="188.6,304.1 215.9,304.1 215.9,310.9 195.4,310.9 195.4,324.5 215.9,324.5 215.9,331.3 195.4,331.3 &#10;&#9;195.4,351.8 188.6,351.8 "/>
  <polygon class="st1" points="209.1,242.7 209.1,278.8 181.8,242.7 175,242.7 175,351.8 181.8,351.8 181.8,254.3 209.1,290.4 &#10;&#9;215.9,290.4 215.9,242.7 "/>
  <rect x="222.7" y="242.7" class="st1" width="6.8" height="6.8"/>
  <rect x="222.7" y="256.3" class="st1" width="6.8" height="95.6"/>
  <polygon class="st0" points="323.9,245.4 323.9,280.9 301.8,245.4 292.4,245.4 292.4,294.7 301,294.7 301,259.4 323.2,294.7 &#10;&#9;332.6,294.7 332.6,245.4 "/>
  <path class="st0" d="M355.4,289.4c1.5,0,2.9-0.3,4.1-0.9c1.2-0.6,2.2-1.5,2.9-2.6c0.8-1.1,1.4-2.4,1.8-3.9c0.4-1.5,0.6-3.1,0.6-4.9 c0-1.8-0.2-3.4-0.6-4.9c-0.4-1.5-1-2.8-1.8-4c-0.8-1.1-1.8-2-2.9-2.6c-1.2-0.6-2.5-0.9-4.1-0.9c-1.5,0-2.9,0.3-4.1,0.9 c-1.2,0.6-2.2,1.5-3,2.6c-0.8,1.1-1.4,2.4-1.8,4c-0.4,1.5-0.6,3.2-0.6,4.9c0,1.8,0.2,3.4,0.6,4.9c0.4,1.5,1,2.8,1.8,3.9 c0.8,1.1,1.8,2,3,2.6C352.4,289.1,353.8,289.4,355.4,289.4 M355.4,295.7c-2.7,0-5.2-0.5-7.4-1.5c-2.2-1-4.1-2.3-5.7-4 c-1.6-1.7-2.8-3.7-3.6-5.9c-0.9-2.3-1.3-4.7-1.3-7.3c0-2.6,0.4-5.1,1.3-7.4c0.9-2.3,2.1-4.2,3.6-5.9c1.6-1.7,3.5-3,5.7-3.9 c2.2-0.9,4.7-1.4,7.4-1.4c2.7,0,5.2,0.5,7.4,1.4c2.2,0.9,4.1,2.3,5.7,3.9c1.6,1.7,2.8,3.7,3.6,5.9c0.8,2.3,1.3,4.7,1.3,7.4 c0,2.6-0.4,5-1.3,7.3c-0.8,2.3-2,4.2-3.6,5.9c-1.6,1.7-3.5,3-5.7,4C360.6,295.2,358.2,295.7,355.4,295.7"/>
  <path class="st0" d="M385.8,265.7h0.2c2.2-4.6,5.6-6.9,10.1-6.9c1,0,1.8,0.1,2.2,0.3v7.5h-0.3c-0.7-0.2-1.5-0.3-2.3-0.3 c-2.8,0-5.1,0.9-6.9,2.7c-1.9,1.8-2.8,4.4-2.8,7.8v17.7h-8.4v-35.3h8.1V265.7z"/>
  <path class="st0" d="M415.9,295.8c-5.1,0-9-1.1-11.8-3.3c-2.8-2.2-4.3-5.1-4.6-8.7h8.1c0.4,2.1,1.3,3.7,2.8,4.6 c1.5,0.9,3.4,1.4,5.6,1.4c2.3,0,4.1-0.5,5.2-1.4c1.1-0.9,1.7-2.1,1.7-3.5c0-0.9-0.2-1.6-0.7-2.2c-0.4-0.6-1.1-1-1.9-1.4 c-0.8-0.4-1.8-0.7-2.9-0.9c-1.1-0.2-2.4-0.5-3.7-0.8c-1.7-0.3-3.3-0.7-4.8-1.1c-1.5-0.4-2.9-1-4.1-1.8c-1.2-0.8-2.2-1.8-2.9-3 c-0.7-1.3-1.1-2.9-1.1-4.9c0-1.7,0.3-3.2,1-4.5c0.7-1.3,1.6-2.4,2.8-3.3c1.2-0.9,2.7-1.6,4.4-2.1c1.7-0.5,3.6-0.7,5.7-0.7 c4.7,0,8.3,1,10.7,2.9c2.4,1.9,3.8,4.4,4.3,7.5h-8c-0.6-3.1-3-4.7-7-4.7c-2,0-3.5,0.4-4.5,1.2c-1,0.8-1.5,1.8-1.5,3 c0,0.8,0.2,1.4,0.7,1.9c0.4,0.5,1.1,0.9,1.9,1.2c0.8,0.3,1.7,0.6,2.8,0.8c1.1,0.2,2.3,0.5,3.6,0.7c1.7,0.3,3.3,0.7,4.9,1.1 c1.6,0.4,3,1,4.3,1.9c1.3,0.8,2.3,1.9,3,3.2c0.7,1.3,1.1,3.1,1.1,5.3c0,1.9-0.4,3.5-1.1,4.9c-0.8,1.4-1.8,2.6-3.1,3.5 c-1.3,0.9-2.9,1.7-4.8,2.2C420.1,295.5,418.1,295.8,415.9,295.8"/>
  <path class="st0" d="M447.1,277.7l-4.2,4.2v12.8h-8.3v-49.2h8.3v19.1c0,1.7,0,3.3-0.1,4.8c-0.1,1.5-0.1,2.8-0.2,3.8l13.3-13.8h10 l-13,12.9l14.5,22.4h-9.8L447.1,277.7z"/>
  <path class="st0" d="M312.5,316.5h8.3v35.3h-8.3V316.5z M312.3,302.6h8.6v8.1h-8.6V302.6z M286.2,316.5h5.4v-3.9 c0-3.7,1.1-6.4,3.3-7.9c1-0.8,2.2-1.4,3.7-1.7c1.5-0.4,3.1-0.5,5-0.5c1.2,0,2.4,0.1,3.8,0.2v6.3c-1.4,0-2.6,0-3.5,0 c-0.9,0.1-1.7,0.2-2.2,0.5c-0.6,0.3-1,0.7-1.2,1.3c-0.2,0.6-0.4,1.3-0.4,2.3v3.4h7.3v5.8h-7.3v29.5h-8.4v-29.5h-5.4V316.5z"/>
  <rect x="326.7" y="302.6" class="st0" width="8.5" height="49.2"/>
  <g>
    <path class="st0" d="M341,316.5h8.1v5.4h0.2c1.1-2,2.6-3.5,4.3-4.6c1.7-1.1,3.8-1.7,6.3-1.7c2.2,0,4.2,0.6,5.8,1.7 c1.6,1.1,2.8,2.8,3.6,5h0.1c1.4-2.3,3.1-4,5-5c1.9-1.1,3.9-1.6,6.2-1.6c3.6,0,6.4,1.1,8.4,3.3c2,2.2,3,5.2,3,9v24h-8.4V329 c0-2-0.5-3.6-1.6-4.8c-1.1-1.1-2.4-1.7-4.2-1.7c-2.1,0-3.8,0.8-5.1,2.3c-1.3,1.5-2,3.6-2,6.1v20.9h-8.4V329c0-2-0.5-3.6-1.5-4.8 c-1-1.1-2.3-1.7-4.1-1.7c-1,0-1.9,0.2-2.8,0.6c-0.9,0.4-1.7,1-2.3,1.7c-0.7,0.7-1.2,1.6-1.6,2.6c-0.4,1-0.6,2.2-0.6,3.4v20.9H341 V316.5z"/>
  </g>
  <path class="st0" d="M397.6,316.5h8.4v35.3h-8.4V316.5z M397.4,302.6h8.6v8.1h-8.6V302.6z"/>
  <g>
    <path class="st0" d="M420.3,321.7h0.2c1.1-2,2.6-3.5,4.5-4.5c1.8-1,4-1.6,6.5-1.6c3.8,0,6.8,1.1,9,3.3c2.1,2.2,3.2,5.2,3.2,9v24 h-8.4v-22.6c0-2.1-0.6-3.8-1.8-5c-1.2-1.2-2.8-1.8-5-1.8c-1.2,0-2.3,0.2-3.2,0.6c-1,0.4-1.8,1-2.5,1.8c-0.7,0.8-1.3,1.7-1.7,2.7 c-0.4,1.1-0.6,2.2-0.6,3.4v20.7h-8.4v-35.3h8.2V321.7z"/>
    <path class="st0" d="M463.9,353c-5.1,0-9-1.1-11.8-3.3c-2.8-2.2-4.3-5.1-4.6-8.7h8.1c0.4,2.1,1.3,3.7,2.8,4.6 c1.5,0.9,3.4,1.4,5.6,1.4c2.3,0,4.1-0.5,5.2-1.4c1.1-0.9,1.7-2.1,1.7-3.5c0-0.9-0.2-1.6-0.7-2.2c-0.4-0.6-1.1-1-1.9-1.4 c-0.8-0.4-1.8-0.7-2.9-0.9c-1.1-0.2-2.4-0.5-3.7-0.8c-1.7-0.3-3.3-0.7-4.8-1.1c-1.5-0.4-2.9-1-4.1-1.8c-1.2-0.8-2.2-1.8-2.9-3 c-0.7-1.3-1.1-2.9-1.1-4.9c0-1.7,0.3-3.2,1-4.5c0.7-1.3,1.6-2.4,2.8-3.3c1.2-0.9,2.7-1.6,4.4-2.1c1.7-0.5,3.6-0.7,5.7-0.7 c4.7,0,8.3,1,10.7,2.9c2.4,1.9,3.8,4.4,4.3,7.5h-8c-0.6-3.1-3-4.7-7-4.7c-2,0-3.5,0.4-4.5,1.2c-1,0.8-1.5,1.8-1.5,3 c0,0.8,0.2,1.4,0.7,1.9c0.4,0.5,1.1,0.9,1.9,1.2c0.8,0.3,1.7,0.6,2.8,0.8c1.1,0.2,2.3,0.5,3.6,0.7c1.7,0.3,3.3,0.7,4.9,1.1 c1.6,0.4,3,1,4.3,1.9c1.3,0.8,2.3,1.9,3,3.2c0.7,1.3,1.1,3.1,1.1,5.3c0,1.9-0.4,3.5-1.1,4.9c-0.8,1.4-1.8,2.6-3.1,3.5 c-1.3,0.9-2.9,1.7-4.8,2.2C468,352.7,466,353,463.9,353"/>
    <path class="st0" d="M479.5,316.5h5.4v-11.2h8.3v11.2h7.1v5.8h-7.1V342c0,1.3,0.3,2.2,1,2.6c0.7,0.5,1.6,0.7,2.8,0.7 c0.4,0,0.9,0,1.4-0.1c0.5,0,0.9-0.1,1.3-0.2h0.4v6.6c-0.7,0.1-1.5,0.3-2.4,0.4c-0.9,0.1-2,0.2-3.1,0.2c-1.4,0-2.7-0.1-3.9-0.4 c-1.2-0.3-2.2-0.7-3-1.4c-0.8-0.6-1.5-1.5-2-2.5c-0.5-1.1-0.7-2.4-0.7-3.9v-21.6h-5.4V316.5z"/>
  </g>
  <path class="st0" d="M503.4,316.5h8.4v35.3h-8.4V316.5z M503.2,302.6h8.6v8.1h-8.6V302.6z"/>
  <g>
    <path class="st0" d="M514.7,316.5h5.4v-11.2h8.3v11.2h7.1v5.8h-7.1V342c0,1.3,0.3,2.2,1,2.6c0.7,0.5,1.6,0.7,2.8,0.7 c0.4,0,0.9,0,1.4-0.1c0.5,0,0.9-0.1,1.3-0.2h0.4v6.6c-0.7,0.1-1.5,0.3-2.4,0.4c-0.9,0.1-2,0.2-3.1,0.2c-1.4,0-2.7-0.1-3.9-0.4 c-1.2-0.3-2.2-0.7-3-1.4c-0.8-0.6-1.5-1.5-2-2.5c-0.5-1.1-0.7-2.4-0.7-3.9v-21.6h-5.4V316.5z"/>
    <path class="st0" d="M561.3,351.8v-5h-0.1c-1.3,1.9-2.7,3.4-4.4,4.4c-1.7,1-3.7,1.5-6.3,1.5c-3.9,0-6.9-1.1-9-3.3 c-2.1-2.2-3.2-5.3-3.2-9.1v-23.8h8.4v22.6c0,2.1,0.6,3.7,1.7,4.9c1.1,1.1,2.8,1.7,4.9,1.7c2.4,0,4.3-0.8,5.7-2.4 c1.4-1.6,2.1-3.6,2.1-6.1v-20.7h8.3v35.3H561.3z"/>
    <path class="st0" d="M572.4,316.5h5.4v-11.2h8.3v11.2h7.1v5.8h-7.1V342c0,1.3,0.3,2.2,1,2.6c0.7,0.5,1.6,0.7,2.8,0.7 c0.4,0,0.9,0,1.4-0.1c0.5,0,0.9-0.1,1.3-0.2h0.4v6.6c-0.7,0.1-1.5,0.3-2.4,0.4c-0.9,0.1-2,0.2-3.1,0.2c-1.4,0-2.7-0.1-3.9-0.4 c-1.2-0.3-2.2-0.7-3-1.4c-0.8-0.6-1.5-1.5-2-2.5c-0.5-1.1-0.7-2.4-0.7-3.9v-21.6h-5.4V316.5z"/>
    <path class="st0" d="M595.9,316.5h5.4v-11.2h8.3v11.2h7.1v5.8h-7.1V342c0,1.3,0.3,2.2,1,2.6c0.7,0.5,1.6,0.7,2.8,0.7 c0.4,0,0.9,0,1.4-0.1c0.5,0,0.9-0.1,1.3-0.2h0.4v6.6c-0.7,0.1-1.5,0.3-2.4,0.4c-0.9,0.1-2,0.2-3.1,0.2c-1.4,0-2.7-0.1-3.9-0.4 c-1.2-0.3-2.2-0.7-3-1.4c-0.8-0.6-1.5-1.5-2-2.5c-0.5-1.1-0.7-2.4-0.7-3.9v-21.6h-5.4V316.5z"/>
  </g>
</svg>